# xmcd
#
# Track frame offsets:
#	150
#	12991
#	26408
#	33726
#	43858
#	53531
#	63106
#	71766
#	82095
#	91081
#	102463
#	112386
#	121227
#	135428
#	146243
#	154878
#	167058
#
# Disc length: 2361 seconds
#
# Revision: 0
# Processed by: cddbd v1.4PL0 Copyright (c) Steve Scherf et al.
# Submitted via: dBpowerAMP V4.0
#
DISCID=ee093711
DTITLE=Buddy Holly - The very best of [CD2]
DYEAR=1900
DGENRE=
TTITLE0=True love ways
TTITLE1=Words
TTITLE2=Baby I don't care (you're so square)
TTITLE3=Well all right
TTITLE4=Everyday
TTITLE5=Love me
TTITLE6=Little baby
TTITLE7=That's what they say
TTITLE8=Reminiscing
TTITLE9=Peggy Sue
TTITLE10=Midnight shift
TTITLE11=It's not my fault
TTITLE12=Forever 22
TTITLE13=Rock-a-bye rock
TTITLE14=What to do
TTITLE15=Ting-a-ling
TTITLE16=Don't come back knockin'
EXTD=
EXTT0=
EXTT1=
EXTT2=
EXTT3=
EXTT4=
EXTT5=
EXTT6=
EXTT7=
EXTT8=
EXTT9=
EXTT10=
EXTT11=
EXTT12=
EXTT13=
EXTT14=
EXTT15=
EXTT16=
PLAYORDER=
